<?xml version="1.0" standalone="no"?>
<!DOCTYPE svg PUBLIC "-//W3C//DTD SVG 20010904//EN"
 "http://www.w3.org/TR/2001/REC-SVG-20010904/DTD/svg10.dtd">
<svg version="1.0" xmlns="http://www.w3.org/2000/svg"
 width="454.000000pt" height="455.000000pt" viewBox="0 0 454.000000 455.000000"
 preserveAspectRatio="xMidYMid meet">

<g transform="translate(0.000000,455.000000) scale(0.100000,-0.100000)"
fill="#000000" stroke="none">
<path d="M0 2285 l0 -2265 2263 2 2262 3 3 2263 2 2262 -2265 0 -2265 0 0
-2265z m1508 1999 l22 -6 -2 -627 -3 -626 -645 0 -645 0 -3 613 c-1 411 1 619
8 633 10 19 26 19 628 19 339 0 627 -3 640 -6z m2771 -8 c8 -9 10 -183 9 -632
l-3 -619 -645 0 -645 0 -3 620 c-2 574 -1 621 15 633 26 19 1256 18 1272 -2z
m-1381 -1348 c17 -17 17 -1239 0 -1256 -17 -17 -1259 -17 -1276 0 -16 16 -17
1219 -2 1249 10 18 28 19 638 19 475 0 631 -3 640 -12z m-1932 -163 c10 -8 29
-15 41 -15 28 0 117 -54 159 -95 17 -16 39 -46 50 -65 10 -19 25 -39 32 -43 6
-4 12 -20 12 -35 0 -15 7 -36 15 -46 20 -27 20 -155 0 -182 -8 -10 -15 -32
-15 -47 0 -15 -7 -30 -15 -33 -8 -4 -15 -14 -15 -24 0 -29 -109 -135 -175
-170 -57 -31 -65 -32 -175 -33 -112 0 -117 1 -177 34 -93 51 -131 90 -185 186
-30 56 -32 63 -32 174 -1 107 1 119 27 170 29 58 106 149 126 149 6 0 14 7 17
15 4 8 12 15 19 15 7 0 18 7 25 15 7 8 24 15 39 15 14 1 37 7 51 15 34 19 150
20 176 0z m552 -1197 c9 -9 12 -162 12 -629 0 -553 -2 -617 -16 -623 -9 -3
-296 -6 -638 -6 -470 0 -625 3 -634 12 -17 17 -17 1229 0 1246 17 17 1259 17
1276 0z m2760 0 c17 -17 17 -1229 0 -1246 -17 -17 -1259 -17 -1276 0 -9 9 -12
161 -12 625 0 572 1 613 18 622 26 16 1254 15 1270 -1z"/>
<path d="M3635 4044 c-33 -8 -79 -23 -102 -34 -52 -24 -132 -104 -156 -156
-10 -22 -25 -52 -33 -67 -9 -18 -14 -61 -14 -118 0 -80 3 -96 31 -154 60 -123
147 -191 279 -218 56 -12 75 -11 140 2 93 20 152 54 216 124 64 70 86 132 87
245 1 140 -39 222 -156 318 -25 21 -82 43 -147 59 -76 17 -68 17 -145 -1z"/>
</g>
</svg>
